<?xml version="1.0" encoding="UTF-8" standalone="no"?>
<!-- Created with Inkscape (http://www.inkscape.org/) -->

<svg
   width="512"
   height="512"
   viewBox="0 0 135.46666 135.46667"
   version="1.1"
   id="svg5"
   inkscape:export-filename="logotest.svg"
   inkscape:export-xdpi="96"
   inkscape:export-ydpi="96"
   xmlns:inkscape="http://www.inkscape.org/namespaces/inkscape"
   xmlns:sodipodi="http://sodipodi.sourceforge.net/DTD/sodipodi-0.dtd"
   xmlns="http://www.w3.org/2000/svg"
   xmlns:svg="http://www.w3.org/2000/svg">
  <sodipodi:namedview
     id="namedview7"
     pagecolor="#505050"
     bordercolor="#eeeeee"
     borderopacity="1"
     inkscape:showpageshadow="0"
     inkscape:pageopacity="0"
     inkscape:pagecheckerboard="0"
     inkscape:deskcolor="#505050"
     inkscape:document-units="mm"
     showgrid="true">
    <inkscape:grid
       type="xygrid"
       id="grid9"
       empspacing="57" />
  </sodipodi:namedview>
  <defs
     id="defs2">
    <linearGradient
       id="linearGradient3526"
       inkscape:swatch="solid">
      <stop
         style="stop-color:#661a81;stop-opacity:1;"
         offset="0"
         id="stop3524" />
    </linearGradient>
    <linearGradient
       id="linearGradient1558"
       inkscape:swatch="solid">
      <stop
         style="stop-color:#661a81;stop-opacity:1;"
         offset="0"
         id="stop1556" />
    </linearGradient>
  </defs>
  <g
     inkscape:label="Calque 1"
     inkscape:groupmode="layer"
     id="layer1">
    <g
       aria-label="R"
       transform="matrix(0.8732778,0,0,0.85527553,14.467005,10.546442)"
       id="text214"
       style="font-size:192.813px;stroke-width:4.82033">
      <path
         id="path387"
         d="M 6.8669909,1.629552 V 141.8148 H 25.508546 V 86.079524 H 51.775482 L 98.660471,141.8148 H 122.85623 L 70.133983,80.524929 c 8.912567,-3.452051 15.910873,-8.567557 20.994808,-15.346133 5.083924,-6.84134 7.625869,-15.31438 7.625869,-25.419479 0,-7.468985 -1.443562,-13.620243 -4.330728,-18.453116 C 91.599524,16.410563 87.645458,12.362709 82.561523,9.1617155 78.042478,6.3373093 72.958595,4.3912183 67.309786,3.3242204 61.660972,2.1944585 54.599818,1.629552 46.1266,1.629552 Z M 35.702926,26.891115 39.306848,24.27527 c 5.176832,-2.221963 10.793905,-3.663033 14.497016,-2.909857 3.70311,0.69041 7.13289,1.970077 9.831768,3.79025 2.950927,2.415486 5.381432,4.139093 6.762251,7.277323 1.443588,3.075465 3.116651,7.496485 3.116651,11.513418 0,5.272226 -1.57858,7.787957 -2.959399,11.240008 -1.318058,3.389288 -6.298241,6.251161 -9.122651,8.887273 -2.298537,1.061978 -3.580186,1.525494 -8.250471,2.796432 -5.737462,-0.386316 -6.339825,-0.415589 -14.936795,-3.914148 L 33.245599,58.452292 C 25.147154,49.090306 26.685708,34.771287 35.702926,26.891115 Z"
         sodipodi:nodetypes="cccccccccscccsccccccscccccc" />
    </g>
    <ellipse
       style="fill:none;stroke:#000000;stroke-width:0.22866"
       id="path567"
       cx="58.810486"
       cy="48.132721"
       rx="19.855125"
       ry="19.486282" />
    <path
       style="fill:none;fill-opacity:1;stroke:#000000;stroke-width:3.65857;stroke-linecap:butt;stroke-linejoin:bevel;stroke-dasharray:none;stroke-opacity:1;paint-order:normal"
       d="M 58.81049,28.646444 V 48.132726 L 44.871862,62.010089 58.81049,48.132726"
       id="path676" />
    <path
       style="fill:none;fill-opacity:1;stroke:#000000;stroke-width:3.65857;stroke-linecap:butt;stroke-linejoin:bevel;stroke-dasharray:none;stroke-opacity:1;paint-order:normal"
       d="M 58.81049,28.646444 V 48.132726 L 72.749117,62.010089 58.81049,48.132726"
       id="path678" />
  </g>
  <g
     inkscape:groupmode="layer"
     id="layer2"
     inkscape:label="Calque 2">
    <ellipse
       style="display:inline;fill:none;fill-opacity:1;stroke:#ef6461;stroke-width:5.435;stroke-linecap:butt;stroke-linejoin:bevel;stroke-dasharray:none;stroke-opacity:1;paint-order:normal"
       id="path1359"
       cx="67.73333"
       cy="78.639397"
       rx="62.986813"
       ry="113.78065" />
    <ellipse
       style="fill:none;fill-opacity:1;stroke:#ef8761;stroke-width:5.43499;stroke-linecap:butt;stroke-linejoin:bevel;stroke-dasharray:none;stroke-opacity:1;paint-order:normal"
       id="path9093"
       cx="66.798088"
       cy="79.478401"
       rx="95.78167"
       ry="130.19966" />
    <path
       style="fill:#ef6461;fill-opacity:1;stroke:#ef6461;stroke-width:21.5864;stroke-linecap:butt;stroke-linejoin:bevel;stroke-dasharray:none;stroke-opacity:1;paint-order:normal"
       d="M 234.34098,781.18029 C 196.91421,777.65178 165.51466,768.75833 132.49558,752.33412 80.295748,726.36909 33.601291,683.99866 -4.0730269,628.41212 -41.428639,573.29582 -68.306173,509.31335 -83.973684,438.20712 -98.827763,370.79261 -102.51226,296.89689 -94.523736,226.61688 -82.202942,118.22317 -43.322519,19.352645 16.573498,-55.896565 c 14.01855,-17.611922 44.320709,-47.902375 60.139019,-60.115765 38.378483,-29.63222 74.144073,-47.48785 115.068773,-57.44701 19.04341,-4.63427 31.71406,-6.31503 52.54282,-6.96979 34.95085,-1.09869 66.02514,3.9163 98.92757,15.96563 25.66631,9.39936 63.06848,30.65476 84.86501,48.22819 28.27163,22.793979 53.94192,50.209835 75.38038,80.506193 53.11338,75.058679 85.85407,166.628497 97.12686,271.646377 2.29034,21.3369 3.23382,85.29954 1.59258,107.96824 -8.80791,121.65456 -48.29933,230.50486 -113.1403,311.84889 -13.66981,17.14898 -44.00652,47.74806 -59.65668,60.17262 -43.89662,34.84925 -91.38529,56.04105 -142.01031,63.37207 -10.55155,1.52797 -44.22945,2.7345 -53.06824,1.90121 z m 46.39597,-45.52126 c 84.32779,-14.43931 158.6522,-104.06127 196.80982,-237.31749 12.10526,-42.2747 19.72884,-84.78277 24.82542,-138.42323 1.798,-18.92375 2.45743,-84.79479 1.07304,-107.18735 C 495.35329,121.84449 458.44932,10.050443 398.75038,-64.423655 354.78388,-119.27159 298.35573,-147.98879 244.41219,-142.96885 201.74146,-138.99794 165.2933,-119.74908 128.71603,-81.867835 106.86305,-59.235798 87.977802,-31.538397 70.017101,4.2209854 37.230392,69.498608 16.693127,148.4199 9.4505722,236.96812 6.3456699,274.92887 7.0820575,335.64222 11.126625,375.15573 30.02798,559.81312 111.27635,702.06224 214.90013,731.92109 c 21.18153,6.10339 44.3425,7.41837 65.83682,3.73794 z"
       id="path9101"
       transform="scale(0.26458333)" />
  </g>
</svg>
