<?xml version="1.0" encoding="UTF-8" standalone="no"?>
<!-- Created with Inkscape (http://www.inkscape.org/) -->

<svg
   width="512"
   height="512"
   viewBox="0 0 135.46666 135.46667"
   version="1.1"
   id="svg5"
   xml:space="preserve"
   inkscape:export-filename="image.svg"
   inkscape:export-xdpi="96"
   inkscape:export-ydpi="96"
   xmlns:inkscape="http://www.inkscape.org/namespaces/inkscape"
   xmlns:sodipodi="http://sodipodi.sourceforge.net/DTD/sodipodi-0.dtd"
   xmlns="http://www.w3.org/2000/svg"
   xmlns:svg="http://www.w3.org/2000/svg"><sodipodi:namedview
     id="namedview7"
     pagecolor="#505050"
     bordercolor="#eeeeee"
     borderopacity="1"
     inkscape:showpageshadow="0"
     inkscape:pageopacity="0"
     inkscape:pagecheckerboard="0"
     inkscape:deskcolor="#505050"
     inkscape:document-units="mm"
     showgrid="true"><inkscape:grid
       type="xygrid"
       id="grid9"
       empspacing="57" /></sodipodi:namedview><defs
     id="defs2"><linearGradient
       id="linearGradient4904"
       inkscape:swatch="solid"><stop
         style="stop-color:#000000;stop-opacity:1;"
         offset="0"
         id="stop4902" /></linearGradient></defs><g
     inkscape:label="Calque 1"
     inkscape:groupmode="layer"
     id="layer1"><path
       style="opacity:1;fill:#000000;fill-opacity:1;stroke:#000000;stroke-width:0.668109;stroke-linecap:butt;stroke-linejoin:miter;stroke-dasharray:none;stroke-opacity:1"
       d="m 141.63918,468.6342 c -16.90918,-3.66175 -28.33974,-18.46025 -31.80984,-41.18243 -1.46068,-9.56446 -0.93319,-32.73238 1.03124,-45.29323 9.60539,-61.41841 43.1212,-139.2173 91.24718,-211.80842 51.53065,-77.726576 109.32273,-131.100936 149.7318,-138.286075 7.22248,-1.284228 17.54179,-0.589061 23.14372,1.559091 11.45425,4.392318 19.27149,13.231081 23.85482,26.972054 6.02431,18.061054 5.41273,45.6587 -1.71956,77.59693 -16.68535,74.71651 -65.94939,170.8848 -124.12082,242.29614 -31.34664,38.4812 -64.39181,67.74979 -90.86731,80.48253 -16.40063,7.88748 -28.70388,10.21601 -40.49123,7.66341 z M 165.023,451.03157 C 216.56121,433.68098 292.28243,344.30317 342.43205,241.62614 371.18013,182.76695 386.99134,129.16649 387.00314,90.528814 387.00894,71.554889 383.45661,59.146732 376.1339,52.562986 362.47325,40.280885 335.88965,49.124667 302.23649,77.147039 225.79663,140.79712 143.25726,283.78886 127.33115,380.15421 c -5.77087,34.91823 -2.34374,60.31563 9.34171,69.22855 6.48226,4.94427 16.782,5.54329 28.35014,1.64881 z"
       id="path5263"
       transform="scale(0.26458333)" /></g><g
     inkscape:groupmode="layer"
     id="layer2"
     inkscape:label="2"
     style="display:inline"><path
       style="opacity:1;fill:#000000;fill-opacity:1;stroke:#000000;stroke-width:0.722453;stroke-linecap:butt;stroke-linejoin:miter;stroke-dasharray:none;stroke-opacity:1"
       d="m 349.66714,469.19427 c -22.92123,-4.9182 -47.98954,-21.56539 -78.94962,-52.42832 l -15.73499,-15.68562 -10.27331,10.50898 c -17.02775,17.41836 -35.34506,32.76118 -50.08379,41.95081 -18.25527,11.38221 -36.36212,17.10008 -48.56567,15.33632 -9.91154,-1.43251 -14.86155,-3.83426 -21.51518,-10.43922 -4.12146,-4.0913 -5.78468,-6.45354 -8.42186,-11.96142 -4.05301,-8.46487 -5.41758,-13.77729 -6.40227,-24.92462 -3.424,-38.76187 11.59881,-96.90671 41.40139,-160.24144 l 5.032,-10.69372 -6.13981,-13.50845 C 115.93061,162.11925 102.43653,97.375172 113.46978,61.769711 c 4.95157,-15.979218 15.35594,-26.808479 28.85341,-30.031705 16.0782,-3.839508 38.20672,3.461972 62.14813,20.506261 12.33363,8.780521 21.13956,16.477312 37.10777,32.433932 l 15.09015,15.079198 11.27938,-11.440794 c 21.07673,-21.378365 36.43124,-33.841776 54.42468,-44.177055 22.57565,-12.967262 41.0028,-15.700957 56.05831,-8.31633 27.89032,13.680025 31.74562,61.940689 10.49289,131.349762 -6.52293,21.30314 -17.90859,50.24174 -28.71494,72.98391 l -4.74158,9.97874 4.26343,9.12778 c 24.74705,52.98214 39.21972,101.18423 42.08609,140.17022 1.42082,19.32479 -0.95041,36.44279 -6.69391,48.3236 -8.532,17.64901 -25.59918,25.69781 -45.45645,21.43704 z m 21.5461,-17.29818 c 22.52117,-12.27067 19.667,-69.84799 -7.00997,-141.41242 C 351.31751,275.91591 332.07976,236.38723 311.58613,202.36879 259.64883,116.15541 196.24533,52.600095 156.51645,46.927847 c -20.42184,-2.915706 -30.80967,11.804232 -30.80967,43.658422 0,64.487981 45.03751,172.288061 107.93887,258.358411 36.11741,49.42084 76.92335,88.13626 105.8852,100.46064 13.17504,5.60648 24.35129,6.48513 31.68239,2.49077 z M 165.3211,451.26976 c 16.50481,-5.79123 34.6815,-17.98909 55.78452,-37.4354 8.03543,-7.4046 23.11329,-22.94281 23.64208,-24.36391 0.10859,-0.29183 -2.30398,-3.59637 -5.36126,-7.34343 -22.77198,-27.90965 -49.11136,-67.60202 -68.16205,-102.71746 -3.37577,-6.22244 -6.37029,-11.08099 -6.65448,-10.79679 -0.83149,0.83148 -9.76193,21.20527 -14.29886,32.6212 -12.26166,30.85309 -20.00535,57.85539 -24.0193,83.75548 -2.23305,14.40878 -2.23091,36.86485 0.004,45.76123 2.99114,11.90479 8.04413,18.96647 15.46943,21.6189 5.50885,1.96785 16.28422,1.46559 23.59556,-1.09982 z M 352.21824,221.43177 c 23.81262,-53.15099 36.11652,-101.18036 34.79392,-135.821118 -0.77385,-20.268086 -5.32765,-31.115114 -15.26437,-36.359374 -3.29254,-1.737688 -4.41618,-1.930622 -11.24386,-1.930622 -8.86046,0 -13.46464,1.265807 -24.92462,6.852411 -15.35491,7.485333 -32.56107,20.707705 -52.62817,40.443023 -7.48864,7.36483 -14.21247,14.22255 -14.94184,15.23937 l -1.32614,1.84878 5.8532,7.18188 c 22.20247,27.24248 47.22156,64.707 65.82724,98.57216 3.38374,6.15891 6.67123,12.13609 7.30555,13.28261 0.63431,1.14653 1.27495,1.95929 1.42365,1.80613 0.1487,-0.15315 2.45514,-5.15501 5.12544,-11.11525 z"
       id="path5265"
       transform="scale(0.26458333)" /></g><g
     inkscape:groupmode="layer"
     id="layer3"
     inkscape:label="3"
     style="display:inline"><path
       style="opacity:1;fill:#000000;fill-opacity:1;stroke:#000000;stroke-width:0.722453;stroke-linecap:butt;stroke-linejoin:miter;stroke-dasharray:none;stroke-opacity:1"
       d="m 351.73497,469.34931 c -17.74567,-4.42874 -30.38241,-10.71401 -47.61936,-23.68497 -10.94625,-8.23715 -19.93989,-16.23298 -35.40516,-31.4771 -6.9767,-6.87693 -12.99112,-12.49779 -13.36537,-12.49081 -0.37427,0.007 -6.04469,5.39692 -12.60095,11.97765 -30.65078,30.76518 -56.96405,48.62842 -79.84122,54.20167 -10.16385,2.47609 -22.14675,1.37578 -30.2965,-2.78193 -4.06452,-2.07356 -11.5904,-9.50687 -14.43451,-14.25697 -6.09454,-10.17878 -8.23939,-19.13419 -8.83087,-36.87142 -0.74869,-22.45167 2.99744,-45.75643 12.51469,-77.85424 1.44489,-4.873 2.49608,-8.96143 2.336,-9.0854 -0.16009,-0.12397 -5.33018,-1.45908 -11.48909,-2.96691 -15.053813,-3.6855 -36.490762,-10.82577 -48.404335,-16.12263 -28.791127,-12.80076 -45.925529,-27.25387 -52.245293,-44.06964 -1.253082,-3.33424 -1.555776,-5.69903 -1.54775,-12.09182 0.0087,-6.92187 0.253948,-8.53212 1.901312,-12.48311 3.051434,-7.31849 6.371354,-12.22839 12.353038,-18.26921 16.524021,-16.68737 49.943021,-31.90946 91.879488,-41.85036 5.14518,-1.21965 9.46912,-2.33179 9.60876,-2.47144 0.13965,-0.13965 -1.05504,-4.51702 -2.65486,-9.72749 -8.97738,-29.23849 -13.5998,-55.92055 -13.31251,-76.843996 0.18793,-13.686913 0.32991,-15.301778 1.95934,-22.284313 5.75518,-24.662505 21.25102,-38.032954 42.34355,-36.535764 8.66517,0.615071 17.54891,3.338347 28.5584,8.754462 18.35834,9.031373 33.28125,20.500358 57.09956,43.883781 l 15.96709,15.675565 8.25875,-8.340868 c 24.94634,-25.194396 42.70373,-39.383728 62.16444,-49.673497 25.26859,-13.36067 47.16636,-13.125642 60.97325,0.654423 7.14855,7.134658 11.9806,18.130802 14.02965,31.926823 0.97155,6.541272 0.99085,26.690704 0.0338,35.261794 -1.86558,16.70743 -6.76228,39.18614 -12.62986,57.97846 -1.52009,4.86841 -2.62906,8.97846 -2.46439,9.13344 0.16468,0.15498 6.38146,1.78257 13.81507,3.61686 42.66064,10.52682 73.52598,24.83591 90.49649,41.95396 9.80155,9.88675 13.99144,18.0578 14.65543,28.5807 0.4487,7.11097 -0.71898,12.42537 -4.32735,19.69485 -2.40122,4.83754 -4.2848,7.26749 -10.23711,13.20664 -4.11681,4.10771 -10.1269,9.15505 -13.79652,11.58646 -19.2257,12.73857 -48.27566,23.90119 -81.63717,31.36956 -3.97349,0.88952 -7.51287,1.87774 -7.86529,2.19605 -0.36435,0.3291 0.64437,5.03941 2.33838,10.91927 12.22326,42.42653 14.98491,76.57112 8.02361,99.20221 -5.98252,19.4491 -19.67121,30.65028 -37.83778,30.9619 -3.32077,0.0569 -7.13085,-0.16923 -8.46683,-0.50264 z m 17.2077,-16.16644 c 4.7775,-1.62787 9.28109,-6.10152 12.09021,-12.00988 4.02613,-8.46805 5.09051,-14.74293 5.10527,-30.09737 0.0168,-17.41844 -0.99349,-26.50442 -5.00821,-45.0433 -2.47564,-11.43185 -8.43953,-33.0746 -9.44869,-34.28899 -0.10225,-0.12304 -5.50363,0.59665 -12.00308,1.59931 -12.88604,1.98792 -34.55887,4.42977 -45.41122,5.11643 -11.29958,0.71496 -11.04113,0.61853 -14.10703,5.2633 -4.43007,6.71145 -20.56327,28.09426 -27.3789,36.28778 -3.47054,4.17217 -6.48331,7.99623 -6.69503,8.49792 -0.49649,1.17648 14.22244,16.8867 25.4237,27.13592 28.67698,26.23962 51.0037,38.88289 68.26178,38.65558 3.37196,-0.0444 7.499,-0.54693 9.1712,-1.1167 z m -206.75203,-1.38742 c 8.82416,-2.19291 25.67772,-11.33282 37.56755,-20.37339 11.96098,-9.09466 34.85586,-30.31498 42.38741,-39.28713 l 2.86075,-3.40795 -9.46797,-12.12478 c -5.20739,-6.66863 -13.04889,-17.16389 -17.42556,-23.3228 -4.37666,-6.15891 -8.50884,-11.94054 -9.18261,-12.84807 -1.12352,-1.5133 -2.21297,-1.7387 -13.14551,-2.71967 -14.95113,-1.34156 -32.04526,-3.51364 -45.15048,-5.73709 -5.56443,-0.94406 -10.34151,-1.49452 -10.61572,-1.22323 -1.03425,1.02325 -8.505,28.38399 -10.58961,38.78325 -3.71937,18.55437 -4.08356,22.13385 -4.0795,40.09612 0.004,15.56416 0.14229,17.45701 1.66689,22.73551 3.75183,12.98969 9.3786,18.96748 19.64163,20.86694 2.73408,0.50602 10.6653,-0.22809 15.53273,-1.43771 z M 264.6573,366.10294 c 7.41317,-9.31606 17.47718,-22.64342 18.81355,-24.91403 0.41318,-0.70204 -5.49457,-0.89319 -27.68648,-0.89582 -15.51646,-0.002 -28.20983,0.23721 -28.20749,0.53124 0.006,0.69263 15.03052,20.80969 21.76079,29.13566 2.86223,3.54085 5.63682,6.4379 6.16578,6.4379 0.52895,0 4.64818,-4.63273 9.15385,-10.29495 z m 33.35446,-42.49246 c 83.91308,-4.28643 155.85062,-24.41886 182.15632,-50.97825 7.20948,-7.27901 9.29902,-11.73313 9.27636,-19.77376 -0.0226,-8.03409 -1.9812,-11.92976 -10.01395,-19.91819 -45.01635,-44.76795 -202.67071,-65.73187 -330.96645,-44.0099 -53.323059,9.02823 -94.057744,24.68094 -112.74572,43.3237 -7.17773,7.16036 -9.354271,11.79776 -9.331491,19.88193 0.02156,7.65063 1.759213,11.37061 8.795486,18.82943 16.544068,17.53759 53.881719,32.89099 104.267385,42.8752 46.437,9.20177 102.30022,12.6438 158.56206,9.76984 z M 166.16413,170.19315 c 7.35096,-0.98498 19.05142,-2.32348 26.00101,-2.97443 6.9496,-0.65095 12.83738,-1.30824 13.08397,-1.46063 0.24658,-0.1524 3.96022,-5.24377 8.25252,-11.31415 8.94778,-12.65438 19.2964,-26.27961 26.88733,-35.40049 2.88474,-3.46617 5.24498,-6.7562 5.24498,-7.3112 0,-0.55501 -4.92077,-6.10382 -10.93504,-12.330696 -26.14832,-27.072671 -48.62049,-43.586423 -68.53477,-50.362995 -5.91749,-2.013648 -7.85889,-2.336956 -14.08782,-2.346105 -6.39729,-0.0094 -7.6456,0.206779 -10.90183,1.887917 -4.5308,2.339173 -7.79335,5.967607 -10.48674,11.662779 -3.82919,8.096824 -4.62043,13.501023 -4.61322,31.50835 0.007,17.28062 0.51068,22.19688 4.07154,39.7349 3.10044,15.27034 9.82509,39.52558 11.54232,41.63217 0.48974,0.60078 2.02956,0.55881 5.8868,-0.16047 2.87297,-0.53573 11.238,-1.77996 18.58895,-2.76495 z m 207.31393,-5.29331 c 9.7205,-30.83432 14.43558,-60.761 13.00458,-82.540226 -1.20548,-18.346914 -5.94413,-28.418588 -15.50315,-32.950899 -2.93442,-1.391327 -4.79181,-1.714042 -9.89816,-1.719775 -7.93696,-0.0089 -12.34347,0.937715 -20.18743,4.336759 -12.81248,5.552066 -26.62635,14.821097 -42.15968,28.288908 -7.75902,6.727273 -30.29856,28.952903 -31.45197,31.013933 -0.39795,0.7111 0.55152,2.3918 3.02755,5.35915 6.0211,7.2159 24.475,31.96868 30.50702,40.92002 l 5.6748,8.42123 5.8744,0.47642 c 16.9303,1.37308 56.07723,6.44386 58.0496,7.51928 0.0872,0.0475 1.46533,-4.0586 3.06244,-9.1248 z m -87.53796,-2.60228 c -11.44943,-16.38154 -28.39888,-38.03569 -29.77186,-38.03569 -1.25667,0 -13.19492,14.95647 -26.52645,33.23283 -2.17383,2.98012 -4.17615,5.7893 -4.44962,6.24264 -0.36937,0.61232 7.58087,0.82556 30.92013,0.82937 l 31.41734,0.005 -1.58954,-2.27428 z"
       id="path5267"
       transform="scale(0.26458333)"
       inkscape:transform-center-x="-2.1376388"
       inkscape:transform-center-y="-1.9000728" /><ellipse
       style="display:inline;opacity:1;fill:#000000;fill-opacity:1;stroke:#000000;stroke-width:0.264583;stroke-linecap:butt;stroke-linejoin:miter;stroke-dasharray:none;stroke-opacity:1"
       id="path5321"
       cx="67.85788"
       cy="67.762306"
       rx="7.6459579"
       ry="7.7415328" /><text
       xml:space="preserve"
       style="font-style:normal;font-weight:normal;font-size:2.72635px;line-height:1.25;font-family:sans-serif;text-align:center;text-anchor:middle;fill:#ffffff;fill-opacity:1;stroke:none;stroke-width:0.068159"
       x="67.609222"
       y="66.909851"
       id="text5441"><tspan
         sodipodi:role="line"
         id="tspan5439"
         style="text-align:center;text-anchor:middle;fill:#ffffff;stroke-width:0.068159"
         x="67.609222"
         y="66.909851">F.U</tspan><tspan
         sodipodi:role="line"
         style="text-align:center;text-anchor:middle;fill:#ffffff;stroke-width:0.068159"
         x="67.609222"
         y="70.317787"
         id="tspan5443"
         inkscape:label="tspan5443">PUTIN</tspan></text></g></svg>
