<?xml version="1.0" encoding="UTF-8" standalone="no"?>
<!-- Created with Inkscape (http://www.inkscape.org/) -->

<svg
   width="512"
   height="512"
   viewBox="0 0 135.46666 135.46667"
   version="1.1"
   id="svg5"
   xmlns="http://www.w3.org/2000/svg"
   xmlns:svg="http://www.w3.org/2000/svg">
  <defs
     id="defs2" />
  <g
     id="layer1">
    <path
       style="opacity:0.5;fill:#ffffff;stroke-width:0.244483"
       d="M 66.86466,133.64197 C 61.316165,133.101 55.640671,130.67333 50.542091,126.66004 l -1.332511,-1.04887 1.078495,-0.91609 c 1.664403,-1.41378 5.699755,-3.85605 7.944483,-4.80815 1.113498,-0.47229 3.110457,-1.1327 4.437687,-1.46758 2.166361,-0.5466 2.86775,-0.60887 6.858411,-0.60887 4.0098,0 4.688563,0.0609 6.928861,0.62186 4.260169,1.0667 9.359209,3.64666 12.842407,6.49788 l 1.101156,0.90136 -1.990208,1.48553 c -5.071395,3.78538 -10.090713,5.79273 -15.854637,6.34066 -2.82128,0.26819 -2.777617,0.26831 -5.691575,-0.0158 z"
       id="path581" />
    <path
       style="opacity:0.5;fill:#ffffff;stroke-width:0.25402"
       d="M 46.159257,29.536464 V 14.60171 H 70.2907 94.422146 v 14.936665 14.936663 l -24.131446,-0.0019 -24.131443,-0.0019 v -14.93466 z"
       id="path583" />
    <rect
       style="opacity:0.5;fill:#000000;stroke-width:0.274899"
       id="rect840"
       width="9.4013281"
       height="35.222755"
       x="51.639477"
       y="1.6841202" />
    <path
       style="opacity:0.5;fill:#000000;stroke-width:0.100539"
       d="M 51.691708,25.778807 V 14.65074 h 4.648433 4.648436 v 11.128067 11.128071 h -4.648436 -4.648433 z"
       id="path872" />
    <path
       style="opacity:0.5;fill:#000000;stroke-width:0.100539"
       d="M 51.691708,8.1190468 V 1.6841201 h 4.648433 4.648436 v 6.4349267 6.4349272 h -4.648436 -4.648433 z"
       id="path874" />
    <path
       style="opacity:0.5;fill:#000000;stroke-width:0.100539"
       d="M 51.691708,25.778807 V 14.65074 h 4.648433 4.648436 v 11.128067 11.128071 h -4.648436 -4.648433 z"
       id="path876" />
    <path
       style="opacity:0.5;fill:#000000;stroke-width:0.100539"
       d="M 51.691708,8.1190468 V 1.6841201 h 4.648433 4.648436 v 6.4349267 6.4349272 h -4.648436 -4.648433 z"
       id="path878" />
    <path
       style="opacity:0.5;fill:#000000;stroke-width:0.100539"
       d="M 66.420455,25.827192 V 14.65074 h 4.648433 4.648436 v 11.176452 11.176452 h -4.648436 -4.648433 z"
       id="path880" />
    <path
       style="opacity:0.5;fill:#000000;stroke-width:0.100539"
       d="M 66.420455,25.827192 V 14.65074 h 4.648433 4.648436 v 11.176452 11.176452 h -4.648436 -4.648433 z"
       id="path884" />
    <path
       style="opacity:0.5;fill:#000000;stroke-width:0.100539"
       d="M 66.420455,25.827192 V 14.65074 h 4.648433 4.648436 v 11.176452 11.176452 h -4.648436 -4.648433 z"
       id="path888" />
    <path
       style="opacity:0.5;fill:#000000;stroke-width:0.0802173"
       d="M 66.420455,10.488291 V 6.4226091 h 4.648433 4.648436 v 4.0656819 4.065683 h -4.648436 -4.648433 z"
       id="path890" />
    <path
       style="opacity:0.5;fill:#000000;stroke-width:0.100539"
       d="M 80.940283,25.875573 V 14.65074 h 4.648435 4.648434 V 25.875573 37.10041 h -4.648434 -4.648435 z"
       id="path894" />
    <path
       style="opacity:0.5;fill:#000000;stroke-width:0.0638091"
       d="M 80.940283,12.000923 V 9.4478721 h 4.648437 4.648432 v 2.5530509 2.553051 H 85.58872 80.940283 Z"
       id="path896" />
    <path
       style="opacity:1;fill:#000000;stroke-width:0.100539"
       d="M 80.940283,25.875573 V 14.65074 h 4.648435 4.648434 V 25.875573 37.10041 h -4.648434 -4.648435 z"
       id="path898" />
    <path
       style="opacity:1;fill:#ffffff;stroke-width:0.100539"
       d="M 46.25983,29.552676 V 14.65074 h 2.66371 2.663708 v 11.128067 11.128071 h 4.752893 4.752896 V 25.778807 14.65074 h 2.611477 2.611481 v 11.176452 11.176452 h 4.752893 4.752895 V 25.827192 14.65074 h 2.507019 2.507022 V 25.875573 37.10041 h 4.752894 4.752893 V 25.875573 14.65074 h 2.036955 2.036953 V 29.552676 44.454612 H 70.337674 46.25983 Z"
       id="path912" />
    <path
       style="opacity:1;fill:#ffffff;stroke-width:0.100539"
       d="m 67.987343,133.70486 c -6.572514,-0.60459 -11.764597,-2.73905 -17.568828,-7.22253 l -1.116506,-0.86244 0.635937,-0.54541 c 1.908913,-1.63715 5.366788,-3.78301 7.969084,-4.94538 1.758145,-0.78531 4.01235,-1.51225 6.215322,-2.00432 0.897204,-0.2004 8.405172,-0.30089 9.796783,-0.13111 3.674272,0.44825 8.629123,2.43167 12.734835,5.09774 1.31411,0.85332 3.60786,2.6271 3.561343,2.75402 -0.07076,0.19309 -3.191258,2.40957 -4.743543,3.36933 -4.100385,2.53522 -8.164736,3.90325 -13.09714,4.40841 -1.269742,0.13004 -3.425307,0.17018 -4.387287,0.0817 z"
       id="path918" />
    <path
       style="fill:#ffffff;stroke-width:0.0585003"
       d="m 97.289442,83.147697 c 0.489475,5.429726 0.236897,10.160182 -0.854679,16.006776 l -0.209979,1.124647 -0.280366,-0.364577 c -0.841561,-1.094347 -2.049737,-3.294957 -2.784371,-5.071577 -0.496328,-1.200297 -1.024685,-2.813797 -1.456788,-4.448757 -0.175981,-0.665873 -1.040367,-6.657764 -1.127891,-7.818531 -0.231095,-3.06477 -0.01068,-7.564836 0.566446,-11.565954 0.184729,-1.280636 0.616867,-3.591654 0.67095,-3.588157 0.08228,0.0053 1.280602,1.916673 1.821599,2.905503 1.429053,2.612005 2.40381,5.50589 3.141108,9.325377 0.189803,0.983246 0.442325,2.700533 0.513971,3.495247 z"
       id="path918-9" />
    <path
       style="opacity:1;fill:#000000;stroke-width:0.0909946"
       d="M 66.448945,10.456802 V 6.4281362 h 4.632592 4.632594 v 4.0286658 4.028665 h -4.632594 -4.632592 z"
       id="path1016" />
    <path
       style="opacity:1;fill:#000000;stroke-width:0.0909946"
       d="M 66.448945,10.456802 V 6.4281362 h 4.632592 4.632594 v 4.0286658 4.028665 h -4.632594 -4.632592 z"
       id="path1018" />
    <path
       style="opacity:1;fill:#000000;stroke-width:0.0771116"
       d="M 81.011616,11.985348 V 9.4619418 h 4.60682 4.606814 v 2.5234062 2.523407 h -4.606814 -4.60682 z"
       id="path1020" />
    <path
       style="opacity:1;fill:#ffffff;stroke-width:0.496883"
       d="m 151.38085,425.25478 c -10.40545,-21.25066 -16.37082,-41.525 -19.27562,-65.51148 -1.21911,-10.06689 -1.22297,-31.29014 -0.007,-41.24129 4.02192,-32.92788 15.10945,-62.5661 34.47869,-92.16544 11.93696,-18.24161 21.24311,-28.14935 34.90964,-37.16638 23.7693,-15.68273 55.60799,-20.52584 88.84913,-13.51518 3.09168,0.65204 7.22823,1.69335 9.19234,2.31402 l 3.5711,1.12849 -6.13765,0.61464 c -40.45649,4.05135 -81.2284,29.31486 -112.12277,69.47467 -22.08253,28.70523 -32.91137,54.29177 -37.64244,88.94206 -1.49071,10.91792 -1.60073,39.14721 -0.19754,50.68206 1.76466,14.50628 4.71224,29.57364 7.86098,40.18355 0.8006,2.69766 1.34973,5.01075 1.22029,5.14019 -0.12944,0.12945 -2.24383,-3.86652 -4.69865,-8.87991 z"
       id="path1117"
       transform="scale(0.26458333)" />
  </g>
</svg>
